<svg width="1200" height="700" viewBox="0 0 1200 700" fill="none" xmlns="http://www.w3.org/2000/svg">
  <rect width="1200" height="700" rx="36" fill="#F2EEE4"/>
  <rect x="72" y="74" width="1056" height="78" rx="24" fill="#FEFBF4" stroke="#123D32" stroke-opacity="0.24"/>
  <rect x="104" y="97" width="170" height="34" rx="17" fill="#123D32"/>
  <rect x="292" y="97" width="146" height="34" rx="17" fill="#DCEDE5"/>
  <rect x="456" y="97" width="146" height="34" rx="17" fill="#DCEDE5"/>
  <rect x="620" y="97" width="146" height="34" rx="17" fill="#DCEDE5"/>
  <rect x="72" y="188" width="720" height="430" rx="28" fill="#FEFBF4" stroke="#123D32" stroke-opacity="0.14"/>
  <rect x="830" y="188" width="298" height="220" rx="28" fill="#10221B"/>
  <rect x="830" y="428" width="298" height="190" rx="28" fill="#EAF4EF" stroke="#123D32" stroke-opacity="0.12"/>
  <rect x="120" y="238" width="420" height="26" rx="13" fill="#123D32" opacity="0.92"/>
  <rect x="120" y="286" width="580" height="16" rx="8" fill="#D3DDD7"/>
  <rect x="120" y="318" width="520" height="16" rx="8" fill="#D3DDD7"/>
  <rect x="120" y="396" width="220" height="22" rx="11" fill="#123D32" opacity="0.82"/>
  <rect x="120" y="444" width="600" height="16" rx="8" fill="#D3DDD7"/>
  <rect x="120" y="476" width="564" height="16" rx="8" fill="#D3DDD7"/>
  <rect x="120" y="508" width="532" height="16" rx="8" fill="#D3DDD7"/>
  <text x="872" y="242" fill="#ECFFF8" font-family="Arial, sans-serif" font-size="26" font-weight="700">TOC</text>
  <text x="870" y="292" fill="#9CD1BE" font-family="Arial, sans-serif" font-size="18">· 为什么先做博客层</text>
  <text x="870" y="328" fill="#9CD1BE" font-family="Arial, sans-serif" font-size="18">· 目录与资源组织</text>
  <text x="870" y="364" fill="#9CD1BE" font-family="Arial, sans-serif" font-size="18">· 页面层节奏安排</text>
  <text x="870" y="480" fill="#123D32" font-family="Arial, sans-serif" font-size="24" font-weight="700">Related Posts</text>
  <text x="870" y="526" fill="#37584D" font-family="Arial, sans-serif" font-size="18">文章 A</text>
  <text x="870" y="560" fill="#37584D" font-family="Arial, sans-serif" font-size="18">文章 B</text>
  <text x="870" y="594" fill="#37584D" font-family="Arial, sans-serif" font-size="18">文章 C</text>
</svg>